<svg xmlns="http://www.w3.org/2000/svg" width="1490" height="740" style="cursor: move;"><g transform="translate(277.68354747991265,146.56236278060828) scale(0.6597539553864472)"><path class="link" marker-end="" d="M500,205, 697,100" style="stroke-width: 0.5; stroke-opacity: 1; stroke: rgb(255, 255, 255); fill: none;"></path><path class="link" marker-end="" d="M500,205, 697,170" style="stroke-width: 0.5; stroke-opacity: 1; stroke: rgb(255, 255, 255); fill: none;"></path><path class="link" marker-end="" d="M500,205, 697,240" style="stroke-width: 0.5; stroke-opacity: 1; stroke: rgb(255, 255, 255); fill: none;"></path><path class="link" marker-end="" d="M500,205, 697,310" style="stroke-width: 0.5; stroke-opacity: 1; stroke: rgb(255, 255, 255); fill: none;"></path><path class="link" marker-end="" d="M500,205, 697,380" style="stroke-width: 0.5; stroke-opacity: 1; stroke: rgb(255, 255, 255); fill: none;"></path><path class="link" marker-end="" d="M500,205, 697,450" style="stroke-width: 0.5; stroke-opacity: 1; stroke: rgb(255, 255, 255); fill: none;"></path><path class="link" marker-end="" d="M500,205, 697,520" style="stroke-width: 0.5; stroke-opacity: 1; stroke: rgb(255, 255, 255); fill: none;"></path><path class="link" marker-end="" d="M500,205, 697,590" style="stroke-width: 0.5; stroke-opacity: 1; stroke: rgb(255, 255, 255); fill: none;"></path><path class="link" marker-end="" d="M500,275, 697,100" style="stroke-width: 0.5; stroke-opacity: 1; stroke: rgb(255, 255, 255); fill: none;"></path><path class="link" marker-end="" d="M500,275, 697,170" style="stroke-width: 0.5; stroke-opacity: 1; stroke: rgb(255, 255, 255); fill: none;"></path><path class="link" marker-end="" d="M500,275, 697,240" style="stroke-width: 0.5; stroke-opacity: 1; stroke: rgb(255, 255, 255); fill: none;"></path><path class="link" marker-end="" d="M500,275, 697,310" style="stroke-width: 0.5; stroke-opacity: 1; stroke: rgb(255, 255, 255); fill: none;"></path><path class="link" marker-end="" d="M500,275, 697,380" style="stroke-width: 0.5; stroke-opacity: 1; stroke: rgb(255, 255, 255); fill: none;"></path><path class="link" marker-end="" d="M500,275, 697,450" style="stroke-width: 0.5; stroke-opacity: 1; stroke: rgb(255, 255, 255); fill: none;"></path><path class="link" marker-end="" d="M500,275, 697,520" style="stroke-width: 0.5; stroke-opacity: 1; stroke: rgb(255, 255, 255); fill: none;"></path><path class="link" marker-end="" d="M500,275, 697,590" style="stroke-width: 0.5; stroke-opacity: 1; stroke: rgb(255, 255, 255); fill: none;"></path><path class="link" marker-end="" d="M500,345, 697,100" style="stroke-width: 0.5; stroke-opacity: 1; stroke: rgb(255, 255, 255); fill: none;"></path><path class="link" marker-end="" d="M500,345, 697,170" style="stroke-width: 0.5; stroke-opacity: 1; stroke: rgb(255, 255, 255); fill: none;"></path><path class="link" marker-end="" d="M500,345, 697,240" style="stroke-width: 0.5; stroke-opacity: 1; stroke: rgb(255, 255, 255); fill: none;"></path><path class="link" marker-end="" d="M500,345, 697,310" style="stroke-width: 0.5; stroke-opacity: 1; stroke: rgb(255, 255, 255); fill: none;"></path><path class="link" marker-end="" d="M500,345, 697,380" style="stroke-width: 0.5; stroke-opacity: 1; stroke: rgb(255, 255, 255); fill: none;"></path><path class="link" marker-end="" d="M500,345, 697,450" style="stroke-width: 0.5; stroke-opacity: 1; stroke: rgb(255, 255, 255); fill: none;"></path><path class="link" marker-end="" d="M500,345, 697,520" style="stroke-width: 0.5; stroke-opacity: 1; stroke: rgb(255, 255, 255); fill: none;"></path><path class="link" marker-end="" d="M500,345, 697,590" style="stroke-width: 0.5; stroke-opacity: 1; stroke: rgb(255, 255, 255); fill: none;"></path><path class="link" marker-end="" d="M500,415, 697,100" style="stroke-width: 0.5; stroke-opacity: 1; stroke: rgb(255, 255, 255); fill: none;"></path><path class="link" marker-end="" d="M500,415, 697,170" style="stroke-width: 0.5; stroke-opacity: 1; stroke: rgb(255, 255, 255); fill: none;"></path><path class="link" marker-end="" d="M500,415, 697,240" style="stroke-width: 0.5; stroke-opacity: 1; stroke: rgb(255, 255, 255); fill: none;"></path><path class="link" marker-end="" d="M500,415, 697,310" style="stroke-width: 0.5; stroke-opacity: 1; stroke: rgb(255, 255, 255); fill: none;"></path><path class="link" marker-end="" d="M500,415, 697,380" style="stroke-width: 0.5; stroke-opacity: 1; stroke: rgb(255, 255, 255); fill: none;"></path><path class="link" marker-end="" d="M500,415, 697,450" style="stroke-width: 0.5; stroke-opacity: 1; stroke: rgb(255, 255, 255); fill: none;"></path><path class="link" marker-end="" d="M500,415, 697,520" style="stroke-width: 0.5; stroke-opacity: 1; stroke: rgb(255, 255, 255); fill: none;"></path><path class="link" marker-end="" d="M500,415, 697,590" style="stroke-width: 0.5; stroke-opacity: 1; stroke: rgb(255, 255, 255); fill: none;"></path><path class="link" marker-end="" d="M500,485, 697,100" style="stroke-width: 0.5; stroke-opacity: 1; stroke: rgb(255, 255, 255); fill: none;"></path><path class="link" marker-end="" d="M500,485, 697,170" style="stroke-width: 0.5; stroke-opacity: 1; stroke: rgb(255, 255, 255); fill: none;"></path><path class="link" marker-end="" d="M500,485, 697,240" style="stroke-width: 0.5; stroke-opacity: 1; stroke: rgb(255, 255, 255); fill: none;"></path><path class="link" marker-end="" d="M500,485, 697,310" style="stroke-width: 0.5; stroke-opacity: 1; stroke: rgb(255, 255, 255); fill: none;"></path><path class="link" marker-end="" d="M500,485, 697,380" style="stroke-width: 0.5; stroke-opacity: 1; stroke: rgb(255, 255, 255); fill: none;"></path><path class="link" marker-end="" d="M500,485, 697,450" style="stroke-width: 0.5; stroke-opacity: 1; stroke: rgb(255, 255, 255); fill: none;"></path><path class="link" marker-end="" d="M500,485, 697,520" style="stroke-width: 0.5; stroke-opacity: 1; stroke: rgb(255, 255, 255); fill: none;"></path><path class="link" marker-end="" d="M500,485, 697,590" style="stroke-width: 0.5; stroke-opacity: 1; stroke: rgb(255, 255, 255); fill: none;"></path><path class="link" marker-end="" d="M697,100, 894,275" style="stroke-width: 0.5; stroke-opacity: 1; stroke: rgb(255, 255, 255); fill: none;"></path><path class="link" marker-end="" d="M697,100, 894,345" style="stroke-width: 0.5; stroke-opacity: 1; stroke: rgb(255, 255, 255); fill: none;"></path><path class="link" marker-end="" d="M697,100, 894,415" style="stroke-width: 0.5; stroke-opacity: 1; stroke: rgb(255, 255, 255); fill: none;"></path><path class="link" marker-end="" d="M697,170, 894,275" style="stroke-width: 0.5; stroke-opacity: 1; stroke: rgb(255, 255, 255); fill: none;"></path><path class="link" marker-end="" d="M697,170, 894,345" style="stroke-width: 0.5; stroke-opacity: 1; stroke: rgb(255, 255, 255); fill: none;"></path><path class="link" marker-end="" d="M697,170, 894,415" style="stroke-width: 0.5; stroke-opacity: 1; stroke: rgb(255, 255, 255); fill: none;"></path><path class="link" marker-end="" d="M697,240, 894,275" style="stroke-width: 0.5; stroke-opacity: 1; stroke: rgb(255, 255, 255); fill: none;"></path><path class="link" marker-end="" d="M697,240, 894,345" style="stroke-width: 0.5; stroke-opacity: 1; stroke: rgb(255, 255, 255); fill: none;"></path><path class="link" marker-end="" d="M697,240, 894,415" style="stroke-width: 0.5; stroke-opacity: 1; stroke: rgb(255, 255, 255); fill: none;"></path><path class="link" marker-end="" d="M697,310, 894,275" style="stroke-width: 0.5; stroke-opacity: 1; stroke: rgb(255, 255, 255); fill: none;"></path><path class="link" marker-end="" d="M697,310, 894,345" style="stroke-width: 0.5; stroke-opacity: 1; stroke: rgb(255, 255, 255); fill: none;"></path><path class="link" marker-end="" d="M697,310, 894,415" style="stroke-width: 0.5; stroke-opacity: 1; stroke: rgb(255, 255, 255); fill: none;"></path><path class="link" marker-end="" d="M697,380, 894,275" style="stroke-width: 0.5; stroke-opacity: 1; stroke: rgb(255, 255, 255); fill: none;"></path><path class="link" marker-end="" d="M697,380, 894,345" style="stroke-width: 0.5; stroke-opacity: 1; stroke: rgb(255, 255, 255); fill: none;"></path><path class="link" marker-end="" d="M697,380, 894,415" style="stroke-width: 0.5; stroke-opacity: 1; stroke: rgb(255, 255, 255); fill: none;"></path><path class="link" marker-end="" d="M697,450, 894,275" style="stroke-width: 0.5; stroke-opacity: 1; stroke: rgb(255, 255, 255); fill: none;"></path><path class="link" marker-end="" d="M697,450, 894,345" style="stroke-width: 0.5; stroke-opacity: 1; stroke: rgb(255, 255, 255); fill: none;"></path><path class="link" marker-end="" d="M697,450, 894,415" style="stroke-width: 0.5; stroke-opacity: 1; stroke: rgb(255, 255, 255); fill: none;"></path><path class="link" marker-end="" d="M697,520, 894,275" style="stroke-width: 0.5; stroke-opacity: 1; stroke: rgb(255, 255, 255); fill: none;"></path><path class="link" marker-end="" d="M697,520, 894,345" style="stroke-width: 0.5; stroke-opacity: 1; stroke: rgb(255, 255, 255); fill: none;"></path><path class="link" marker-end="" d="M697,520, 894,415" style="stroke-width: 0.5; stroke-opacity: 1; stroke: rgb(255, 255, 255); fill: none;"></path><path class="link" marker-end="" d="M697,590, 894,275" style="stroke-width: 0.5; stroke-opacity: 1; stroke: rgb(255, 255, 255); fill: none;"></path><path class="link" marker-end="" d="M697,590, 894,345" style="stroke-width: 0.5; stroke-opacity: 1; stroke: rgb(255, 255, 255); fill: none;"></path><path class="link" marker-end="" d="M697,590, 894,415" style="stroke-width: 0.5; stroke-opacity: 1; stroke: rgb(255, 255, 255); fill: none;"></path><path class="link" marker-end="" d="M894,275, 1091,100" style="stroke-width: 0.5; stroke-opacity: 1; stroke: rgb(255, 255, 255); fill: none;"></path><path class="link" marker-end="" d="M894,345, 1091,100" style="stroke-width: 0.5; stroke-opacity: 1; stroke: rgb(255, 255, 255); fill: none;"></path><path class="link" marker-end="" d="M894,415, 1091,100" style="stroke-width: 0.5; stroke-opacity: 1; stroke: rgb(255, 255, 255); fill: none;"></path><path class="link" marker-end="" d="M894,275, 1091,170" style="stroke-width: 0.5; stroke-opacity: 1; stroke: rgb(255, 255, 255); fill: none;"></path><path class="link" marker-end="" d="M894,275, 1091,240" style="stroke-width: 0.5; stroke-opacity: 1; stroke: rgb(255, 255, 255); fill: none;"></path><path class="link" marker-end="" d="M894,275, 1091,310" style="stroke-width: 0.5; stroke-opacity: 1; stroke: rgb(255, 255, 255); fill: none;"></path><path class="link" marker-end="" d="M894,275, 1091,380" style="stroke-width: 0.5; stroke-opacity: 1; stroke: rgb(255, 255, 255); fill: none;"></path><path class="link" marker-end="" d="M894,275, 1091,450" style="stroke-width: 0.5; stroke-opacity: 1; stroke: rgb(255, 255, 255); fill: none;"></path><path class="link" marker-end="" d="M894,275, 1091,520" style="stroke-width: 0.5; stroke-opacity: 1; stroke: rgb(255, 255, 255); fill: none;"></path><path class="link" marker-end="" d="M894,275, 1091,590" style="stroke-width: 0.5; stroke-opacity: 1; stroke: rgb(255, 255, 255); fill: none;"></path><path class="link" marker-end="" d="M894,345, 1091,170" style="stroke-width: 0.5; stroke-opacity: 1; stroke: rgb(255, 255, 255); fill: none;"></path><path class="link" marker-end="" d="M894,345, 1091,240" style="stroke-width: 0.5; stroke-opacity: 1; stroke: rgb(255, 255, 255); fill: none;"></path><path class="link" marker-end="" d="M894,345, 1091,310" style="stroke-width: 0.5; stroke-opacity: 1; stroke: rgb(255, 255, 255); fill: none;"></path><path class="link" marker-end="" d="M894,345, 1091,380" style="stroke-width: 0.5; stroke-opacity: 1; stroke: rgb(255, 255, 255); fill: none;"></path><path class="link" marker-end="" d="M894,345, 1091,450" style="stroke-width: 0.5; stroke-opacity: 1; stroke: rgb(255, 255, 255); fill: none;"></path><path class="link" marker-end="" d="M894,345, 1091,520" style="stroke-width: 0.5; stroke-opacity: 1; stroke: rgb(255, 255, 255); fill: none;"></path><path class="link" marker-end="" d="M894,345, 1091,590" style="stroke-width: 0.5; stroke-opacity: 1; stroke: rgb(255, 255, 255); fill: none;"></path><path class="link" marker-end="" d="M894,415, 1091,170" style="stroke-width: 0.5; stroke-opacity: 1; stroke: rgb(255, 255, 255); fill: none;"></path><path class="link" marker-end="" d="M894,415, 1091,240" style="stroke-width: 0.5; stroke-opacity: 1; stroke: rgb(255, 255, 255); fill: none;"></path><path class="link" marker-end="" d="M894,415, 1091,310" style="stroke-width: 0.5; stroke-opacity: 1; stroke: rgb(255, 255, 255); fill: none;"></path><path class="link" marker-end="" d="M894,415, 1091,380" style="stroke-width: 0.5; stroke-opacity: 1; stroke: rgb(255, 255, 255); fill: none;"></path><path class="link" marker-end="" d="M894,415, 1091,450" style="stroke-width: 0.5; stroke-opacity: 1; stroke: rgb(255, 255, 255); fill: none;"></path><path class="link" marker-end="" d="M894,415, 1091,520" style="stroke-width: 0.5; stroke-opacity: 1; stroke: rgb(255, 255, 255); fill: none;"></path><path class="link" marker-end="" d="M894,415, 1091,590" style="stroke-width: 0.5; stroke-opacity: 1; stroke: rgb(255, 255, 255); fill: none;"></path><path class="link" marker-end="" d="M1091,100, 1288,-40" style="stroke-width: 0.5; stroke-opacity: 1; stroke: rgb(255, 255, 255); fill: none;"></path><path class="link" marker-end="" d="M1091,100, 1288,30" style="stroke-width: 0.5; stroke-opacity: 1; stroke: rgb(255, 255, 255); fill: none;"></path><path class="link" marker-end="" d="M1091,100, 1288,100" style="stroke-width: 0.5; stroke-opacity: 1; stroke: rgb(255, 255, 255); fill: none;"></path><path class="link" marker-end="" d="M1091,100, 1288,170" style="stroke-width: 0.5; stroke-opacity: 1; stroke: rgb(255, 255, 255); fill: none;"></path><path class="link" marker-end="" d="M1091,100, 1288,240" style="stroke-width: 0.5; stroke-opacity: 1; stroke: rgb(255, 255, 255); fill: none;"></path><path class="link" marker-end="" d="M1091,100, 1288,310" style="stroke-width: 0.5; stroke-opacity: 1; stroke: rgb(255, 255, 255); fill: none;"></path><path class="link" marker-end="" d="M1091,100, 1288,380" style="stroke-width: 0.5; stroke-opacity: 1; stroke: rgb(255, 255, 255); fill: none;"></path><path class="link" marker-end="" d="M1091,100, 1288,450" style="stroke-width: 0.5; stroke-opacity: 1; stroke: rgb(255, 255, 255); fill: none;"></path><path class="link" marker-end="" d="M1091,100, 1288,520" style="stroke-width: 0.5; stroke-opacity: 1; stroke: rgb(255, 255, 255); fill: none;"></path><path class="link" marker-end="" d="M1091,100, 1288,590" style="stroke-width: 0.5; stroke-opacity: 1; stroke: rgb(255, 255, 255); fill: none;"></path><path class="link" marker-end="" d="M1091,100, 1288,660" style="stroke-width: 0.5; stroke-opacity: 1; stroke: rgb(255, 255, 255); fill: none;"></path><path class="link" marker-end="" d="M1091,100, 1288,730" style="stroke-width: 0.5; stroke-opacity: 1; stroke: rgb(255, 255, 255); fill: none;"></path><path class="link" marker-end="" d="M1091,170, 1288,-40" style="stroke-width: 0.5; stroke-opacity: 1; stroke: rgb(255, 255, 255); fill: none;"></path><path class="link" marker-end="" d="M1091,170, 1288,30" style="stroke-width: 0.5; stroke-opacity: 1; stroke: rgb(255, 255, 255); fill: none;"></path><path class="link" marker-end="" d="M1091,170, 1288,100" style="stroke-width: 0.5; stroke-opacity: 1; stroke: rgb(255, 255, 255); fill: none;"></path><path class="link" marker-end="" d="M1091,170, 1288,170" style="stroke-width: 0.5; stroke-opacity: 1; stroke: rgb(255, 255, 255); fill: none;"></path><path class="link" marker-end="" d="M1091,170, 1288,240" style="stroke-width: 0.5; stroke-opacity: 1; stroke: rgb(255, 255, 255); fill: none;"></path><path class="link" marker-end="" d="M1091,170, 1288,310" style="stroke-width: 0.5; stroke-opacity: 1; stroke: rgb(255, 255, 255); fill: none;"></path><path class="link" marker-end="" d="M1091,170, 1288,380" style="stroke-width: 0.5; stroke-opacity: 1; stroke: rgb(255, 255, 255); fill: none;"></path><path class="link" marker-end="" d="M1091,170, 1288,450" style="stroke-width: 0.5; stroke-opacity: 1; stroke: rgb(255, 255, 255); fill: none;"></path><path class="link" marker-end="" d="M1091,170, 1288,520" style="stroke-width: 0.5; stroke-opacity: 1; stroke: rgb(255, 255, 255); fill: none;"></path><path class="link" marker-end="" d="M1091,170, 1288,590" style="stroke-width: 0.5; stroke-opacity: 1; stroke: rgb(255, 255, 255); fill: none;"></path><path class="link" marker-end="" d="M1091,170, 1288,660" style="stroke-width: 0.5; stroke-opacity: 1; stroke: rgb(255, 255, 255); fill: none;"></path><path class="link" marker-end="" d="M1091,170, 1288,730" style="stroke-width: 0.5; stroke-opacity: 1; stroke: rgb(255, 255, 255); fill: none;"></path><path class="link" marker-end="" d="M1091,240, 1288,-40" style="stroke-width: 0.5; stroke-opacity: 1; stroke: rgb(255, 255, 255); fill: none;"></path><path class="link" marker-end="" d="M1091,240, 1288,30" style="stroke-width: 0.5; stroke-opacity: 1; stroke: rgb(255, 255, 255); fill: none;"></path><path class="link" marker-end="" d="M1091,240, 1288,100" style="stroke-width: 0.5; stroke-opacity: 1; stroke: rgb(255, 255, 255); fill: none;"></path><path class="link" marker-end="" d="M1091,240, 1288,170" style="stroke-width: 0.5; stroke-opacity: 1; stroke: rgb(255, 255, 255); fill: none;"></path><path class="link" marker-end="" d="M1091,240, 1288,240" style="stroke-width: 0.5; stroke-opacity: 1; stroke: rgb(255, 255, 255); fill: none;"></path><path class="link" marker-end="" d="M1091,240, 1288,310" style="stroke-width: 0.5; stroke-opacity: 1; stroke: rgb(255, 255, 255); fill: none;"></path><path class="link" marker-end="" d="M1091,240, 1288,380" style="stroke-width: 0.5; stroke-opacity: 1; stroke: rgb(255, 255, 255); fill: none;"></path><path class="link" marker-end="" d="M1091,240, 1288,450" style="stroke-width: 0.5; stroke-opacity: 1; stroke: rgb(255, 255, 255); fill: none;"></path><path class="link" marker-end="" d="M1091,240, 1288,520" style="stroke-width: 0.5; stroke-opacity: 1; stroke: rgb(255, 255, 255); fill: none;"></path><path class="link" marker-end="" d="M1091,240, 1288,590" style="stroke-width: 0.5; stroke-opacity: 1; stroke: rgb(255, 255, 255); fill: none;"></path><path class="link" marker-end="" d="M1091,240, 1288,660" style="stroke-width: 0.5; stroke-opacity: 1; stroke: rgb(255, 255, 255); fill: none;"></path><path class="link" marker-end="" d="M1091,240, 1288,730" style="stroke-width: 0.5; stroke-opacity: 1; stroke: rgb(255, 255, 255); fill: none;"></path><path class="link" marker-end="" d="M1091,310, 1288,-40" style="stroke-width: 0.5; stroke-opacity: 1; stroke: rgb(255, 255, 255); fill: none;"></path><path class="link" marker-end="" d="M1091,310, 1288,30" style="stroke-width: 0.5; stroke-opacity: 1; stroke: rgb(255, 255, 255); fill: none;"></path><path class="link" marker-end="" d="M1091,310, 1288,100" style="stroke-width: 0.5; stroke-opacity: 1; stroke: rgb(255, 255, 255); fill: none;"></path><path class="link" marker-end="" d="M1091,310, 1288,170" style="stroke-width: 0.5; stroke-opacity: 1; stroke: rgb(255, 255, 255); fill: none;"></path><path class="link" marker-end="" d="M1091,310, 1288,240" style="stroke-width: 0.5; stroke-opacity: 1; stroke: rgb(255, 255, 255); fill: none;"></path><path class="link" marker-end="" d="M1091,310, 1288,310" style="stroke-width: 0.5; stroke-opacity: 1; stroke: rgb(255, 255, 255); fill: none;"></path><path class="link" marker-end="" d="M1091,310, 1288,380" style="stroke-width: 0.5; stroke-opacity: 1; stroke: rgb(255, 255, 255); fill: none;"></path><path class="link" marker-end="" d="M1091,310, 1288,450" style="stroke-width: 0.5; stroke-opacity: 1; stroke: rgb(255, 255, 255); fill: none;"></path><path class="link" marker-end="" d="M1091,310, 1288,520" style="stroke-width: 0.5; stroke-opacity: 1; stroke: rgb(255, 255, 255); fill: none;"></path><path class="link" marker-end="" d="M1091,310, 1288,590" style="stroke-width: 0.5; stroke-opacity: 1; stroke: rgb(255, 255, 255); fill: none;"></path><path class="link" marker-end="" d="M1091,310, 1288,660" style="stroke-width: 0.5; stroke-opacity: 1; stroke: rgb(255, 255, 255); fill: none;"></path><path class="link" marker-end="" d="M1091,310, 1288,730" style="stroke-width: 0.5; stroke-opacity: 1; stroke: rgb(255, 255, 255); fill: none;"></path><path class="link" marker-end="" d="M1091,380, 1288,-40" style="stroke-width: 0.5; stroke-opacity: 1; stroke: rgb(255, 255, 255); fill: none;"></path><path class="link" marker-end="" d="M1091,380, 1288,30" style="stroke-width: 0.5; stroke-opacity: 1; stroke: rgb(255, 255, 255); fill: none;"></path><path class="link" marker-end="" d="M1091,380, 1288,100" style="stroke-width: 0.5; stroke-opacity: 1; stroke: rgb(255, 255, 255); fill: none;"></path><path class="link" marker-end="" d="M1091,380, 1288,170" style="stroke-width: 0.5; stroke-opacity: 1; stroke: rgb(255, 255, 255); fill: none;"></path><path class="link" marker-end="" d="M1091,380, 1288,240" style="stroke-width: 0.5; stroke-opacity: 1; stroke: rgb(255, 255, 255); fill: none;"></path><path class="link" marker-end="" d="M1091,380, 1288,310" style="stroke-width: 0.5; stroke-opacity: 1; stroke: rgb(255, 255, 255); fill: none;"></path><path class="link" marker-end="" d="M1091,380, 1288,380" style="stroke-width: 0.5; stroke-opacity: 1; stroke: rgb(255, 255, 255); fill: none;"></path><path class="link" marker-end="" d="M1091,380, 1288,450" style="stroke-width: 0.5; stroke-opacity: 1; stroke: rgb(255, 255, 255); fill: none;"></path><path class="link" marker-end="" d="M1091,380, 1288,520" style="stroke-width: 0.5; stroke-opacity: 1; stroke: rgb(255, 255, 255); fill: none;"></path><path class="link" marker-end="" d="M1091,380, 1288,590" style="stroke-width: 0.5; stroke-opacity: 1; stroke: rgb(255, 255, 255); fill: none;"></path><path class="link" marker-end="" d="M1091,380, 1288,660" style="stroke-width: 0.5; stroke-opacity: 1; stroke: rgb(255, 255, 255); fill: none;"></path><path class="link" marker-end="" d="M1091,380, 1288,730" style="stroke-width: 0.5; stroke-opacity: 1; stroke: rgb(255, 255, 255); fill: none;"></path><path class="link" marker-end="" d="M1091,450, 1288,-40" style="stroke-width: 0.5; stroke-opacity: 1; stroke: rgb(255, 255, 255); fill: none;"></path><path class="link" marker-end="" d="M1091,450, 1288,30" style="stroke-width: 0.5; stroke-opacity: 1; stroke: rgb(255, 255, 255); fill: none;"></path><path class="link" marker-end="" d="M1091,450, 1288,100" style="stroke-width: 0.5; stroke-opacity: 1; stroke: rgb(255, 255, 255); fill: none;"></path><path class="link" marker-end="" d="M1091,450, 1288,170" style="stroke-width: 0.5; stroke-opacity: 1; stroke: rgb(255, 255, 255); fill: none;"></path><path class="link" marker-end="" d="M1091,450, 1288,240" style="stroke-width: 0.5; stroke-opacity: 1; stroke: rgb(255, 255, 255); fill: none;"></path><path class="link" marker-end="" d="M1091,450, 1288,310" style="stroke-width: 0.5; stroke-opacity: 1; stroke: rgb(255, 255, 255); fill: none;"></path><path class="link" marker-end="" d="M1091,450, 1288,380" style="stroke-width: 0.5; stroke-opacity: 1; stroke: rgb(255, 255, 255); fill: none;"></path><path class="link" marker-end="" d="M1091,450, 1288,450" style="stroke-width: 0.5; stroke-opacity: 1; stroke: rgb(255, 255, 255); fill: none;"></path><path class="link" marker-end="" d="M1091,450, 1288,520" style="stroke-width: 0.5; stroke-opacity: 1; stroke: rgb(255, 255, 255); fill: none;"></path><path class="link" marker-end="" d="M1091,450, 1288,590" style="stroke-width: 0.5; stroke-opacity: 1; stroke: rgb(255, 255, 255); fill: none;"></path><path class="link" marker-end="" d="M1091,450, 1288,660" style="stroke-width: 0.5; stroke-opacity: 1; stroke: rgb(255, 255, 255); fill: none;"></path><path class="link" marker-end="" d="M1091,450, 1288,730" style="stroke-width: 0.5; stroke-opacity: 1; stroke: rgb(255, 255, 255); fill: none;"></path><path class="link" marker-end="" d="M1091,520, 1288,-40" style="stroke-width: 0.5; stroke-opacity: 1; stroke: rgb(255, 255, 255); fill: none;"></path><path class="link" marker-end="" d="M1091,520, 1288,30" style="stroke-width: 0.5; stroke-opacity: 1; stroke: rgb(255, 255, 255); fill: none;"></path><path class="link" marker-end="" d="M1091,520, 1288,100" style="stroke-width: 0.5; stroke-opacity: 1; stroke: rgb(255, 255, 255); fill: none;"></path><path class="link" marker-end="" d="M1091,520, 1288,170" style="stroke-width: 0.5; stroke-opacity: 1; stroke: rgb(255, 255, 255); fill: none;"></path><path class="link" marker-end="" d="M1091,520, 1288,240" style="stroke-width: 0.5; stroke-opacity: 1; stroke: rgb(255, 255, 255); fill: none;"></path><path class="link" marker-end="" d="M1091,520, 1288,310" style="stroke-width: 0.5; stroke-opacity: 1; stroke: rgb(255, 255, 255); fill: none;"></path><path class="link" marker-end="" d="M1091,520, 1288,380" style="stroke-width: 0.5; stroke-opacity: 1; stroke: rgb(255, 255, 255); fill: none;"></path><path class="link" marker-end="" d="M1091,520, 1288,450" style="stroke-width: 0.5; stroke-opacity: 1; stroke: rgb(255, 255, 255); fill: none;"></path><path class="link" marker-end="" d="M1091,520, 1288,520" style="stroke-width: 0.5; stroke-opacity: 1; stroke: rgb(255, 255, 255); fill: none;"></path><path class="link" marker-end="" d="M1091,520, 1288,590" style="stroke-width: 0.5; stroke-opacity: 1; stroke: rgb(255, 255, 255); fill: none;"></path><path class="link" marker-end="" d="M1091,520, 1288,660" style="stroke-width: 0.5; stroke-opacity: 1; stroke: rgb(255, 255, 255); fill: none;"></path><path class="link" marker-end="" d="M1091,520, 1288,730" style="stroke-width: 0.5; stroke-opacity: 1; stroke: rgb(255, 255, 255); fill: none;"></path><path class="link" marker-end="" d="M1091,590, 1288,-40" style="stroke-width: 0.5; stroke-opacity: 1; stroke: rgb(255, 255, 255); fill: none;"></path><path class="link" marker-end="" d="M1091,590, 1288,30" style="stroke-width: 0.5; stroke-opacity: 1; stroke: rgb(255, 255, 255); fill: none;"></path><path class="link" marker-end="" d="M1091,590, 1288,100" style="stroke-width: 0.5; stroke-opacity: 1; stroke: rgb(255, 255, 255); fill: none;"></path><path class="link" marker-end="" d="M1091,590, 1288,170" style="stroke-width: 0.5; stroke-opacity: 1; stroke: rgb(255, 255, 255); fill: none;"></path><path class="link" marker-end="" d="M1091,590, 1288,240" style="stroke-width: 0.5; stroke-opacity: 1; stroke: rgb(255, 255, 255); fill: none;"></path><path class="link" marker-end="" d="M1091,590, 1288,310" style="stroke-width: 0.5; stroke-opacity: 1; stroke: rgb(255, 255, 255); fill: none;"></path><path class="link" marker-end="" d="M1091,590, 1288,380" style="stroke-width: 0.5; stroke-opacity: 1; stroke: rgb(255, 255, 255); fill: none;"></path><path class="link" marker-end="" d="M1091,590, 1288,450" style="stroke-width: 0.5; stroke-opacity: 1; stroke: rgb(255, 255, 255); fill: none;"></path><path class="link" marker-end="" d="M1091,590, 1288,520" style="stroke-width: 0.5; stroke-opacity: 1; stroke: rgb(255, 255, 255); fill: none;"></path><path class="link" marker-end="" d="M1091,590, 1288,590" style="stroke-width: 0.5; stroke-opacity: 1; stroke: rgb(255, 255, 255); fill: none;"></path><path class="link" marker-end="" d="M1091,590, 1288,660" style="stroke-width: 0.5; stroke-opacity: 1; stroke: rgb(255, 255, 255); fill: none;"></path><path class="link" marker-end="" d="M1091,590, 1288,730" style="stroke-width: 0.5; stroke-opacity: 1; stroke: rgb(255, 255, 255); fill: none;"></path><circle r="25" class="node" id="0_0" cx="500" cy="205" style="fill: rgb(0, 0, 255); stroke: rgb(255, 0, 255);"></circle><circle r="25" class="node" id="0_1" cx="500" cy="275" style="fill: rgb(0, 0, 255); stroke: rgb(255, 0, 255);"></circle><circle r="25" class="node" id="0_2" cx="500" cy="345" style="fill: rgb(0, 0, 255); stroke: rgb(255, 0, 255);"></circle><circle r="25" class="node" id="0_3" cx="500" cy="415" style="fill: rgb(0, 0, 255); stroke: rgb(255, 0, 255);"></circle><circle r="25" class="node" id="0_4" cx="500" cy="485" style="fill: rgb(0, 0, 255); stroke: rgb(255, 0, 255);"></circle><circle r="25" class="node" id="1_0" cx="697" cy="100" style="fill: rgb(0, 0, 255); stroke: rgb(255, 0, 255);"></circle><circle r="25" class="node" id="1_1" cx="697" cy="170" style="fill: rgb(0, 0, 255); stroke: rgb(255, 0, 255);"></circle><circle r="25" class="node" id="1_2" cx="697" cy="240" style="fill: rgb(0, 0, 255); stroke: rgb(255, 0, 255);"></circle><circle r="25" class="node" id="1_3" cx="697" cy="310" style="fill: rgb(0, 0, 255); stroke: rgb(255, 0, 255);"></circle><circle r="25" class="node" id="1_4" cx="697" cy="380" style="fill: rgb(0, 0, 255); stroke: rgb(255, 0, 255);"></circle><circle r="25" class="node" id="1_5" cx="697" cy="450" style="fill: rgb(0, 0, 255); stroke: rgb(255, 0, 255);"></circle><circle r="25" class="node" id="1_6" cx="697" cy="520" style="fill: rgb(0, 0, 255); stroke: rgb(255, 0, 255);"></circle><circle r="25" class="node" id="1_7" cx="697" cy="590" style="fill: rgb(0, 0, 255); stroke: rgb(255, 0, 255);"></circle><circle r="25" class="node" id="2_0" cx="894" cy="275" style="fill: rgb(0, 0, 255); stroke: rgb(255, 0, 255);"></circle><circle r="25" class="node" id="2_1" cx="894" cy="345" style="fill: rgb(0, 0, 255); stroke: rgb(255, 0, 255);"></circle><circle r="25" class="node" id="2_2" cx="894" cy="415" style="fill: rgb(0, 0, 255); stroke: rgb(255, 0, 255);"></circle><circle r="25" class="node" id="3_0" cx="1091" cy="100" style="fill: rgb(0, 0, 255); stroke: rgb(255, 0, 255);"></circle><text class="text" dy=".35em" x="465" y="800" style="font-size: 12px;"></text><text class="text" dy=".35em" x="662" y="800" style="font-size: 12px;"></text><text class="text" dy=".35em" x="859" y="800" style="font-size: 12px;"></text><text class="text" dy=".35em" x="1056" y="800" style="font-size: 12px;"></text><circle r="25" class="node" id="3_1" cx="1091" cy="170" style="fill: rgb(0, 0, 255); stroke: rgb(255, 0, 255);"></circle><circle r="25" class="node" id="3_2" cx="1091" cy="240" style="fill: rgb(0, 0, 255); stroke: rgb(255, 0, 255);"></circle><circle r="25" class="node" id="3_3" cx="1091" cy="310" style="fill: rgb(0, 0, 255); stroke: rgb(255, 0, 255);"></circle><circle r="25" class="node" id="3_4" cx="1091" cy="380" style="fill: rgb(0, 0, 255); stroke: rgb(255, 0, 255);"></circle><circle r="25" class="node" id="3_5" cx="1091" cy="450" style="fill: rgb(0, 0, 255); stroke: rgb(255, 0, 255);"></circle><circle r="25" class="node" id="3_6" cx="1091" cy="520" style="fill: rgb(0, 0, 255); stroke: rgb(255, 0, 255);"></circle><circle r="25" class="node" id="3_7" cx="1091" cy="590" style="fill: rgb(0, 0, 255); stroke: rgb(255, 0, 255);"></circle><circle r="25" class="node" id="4_0" cx="1288" cy="-40" style="fill: rgb(0, 0, 255); stroke: rgb(255, 0, 255);"></circle><circle r="25" class="node" id="4_1" cx="1288" cy="30" style="fill: rgb(0, 0, 255); stroke: rgb(255, 0, 255);"></circle><circle r="25" class="node" id="4_2" cx="1288" cy="100" style="fill: rgb(0, 0, 255); stroke: rgb(255, 0, 255);"></circle><circle r="25" class="node" id="4_3" cx="1288" cy="170" style="fill: rgb(0, 0, 255); stroke: rgb(255, 0, 255);"></circle><circle r="25" class="node" id="4_4" cx="1288" cy="240" style="fill: rgb(0, 0, 255); stroke: rgb(255, 0, 255);"></circle><circle r="25" class="node" id="4_5" cx="1288" cy="310" style="fill: rgb(0, 0, 255); stroke: rgb(255, 0, 255);"></circle><circle r="25" class="node" id="4_6" cx="1288" cy="380" style="fill: rgb(0, 0, 255); stroke: rgb(255, 0, 255);"></circle><circle r="25" class="node" id="4_7" cx="1288" cy="450" style="fill: rgb(0, 0, 255); stroke: rgb(255, 0, 255);"></circle><circle r="25" class="node" id="4_8" cx="1288" cy="520" style="fill: rgb(0, 0, 255); stroke: rgb(255, 0, 255);"></circle><circle r="25" class="node" id="4_9" cx="1288" cy="590" style="fill: rgb(0, 0, 255); stroke: rgb(255, 0, 255);"></circle><circle r="25" class="node" id="4_10" cx="1288" cy="660" style="fill: rgb(0, 0, 255); stroke: rgb(255, 0, 255);"></circle><circle r="25" class="node" id="4_11" cx="1288" cy="730" style="fill: rgb(0, 0, 255); stroke: rgb(255, 0, 255);"></circle><text class="text" dy=".35em" x="1253" y="800" style="font-size: 12px;"></text></g><defs><marker id="arrow" viewBox="0 -5 10 10" markerWidth="7" markerHeight="7" orient="auto" refX="82"><path d="M0,-5L10,0L0,5" style="stroke: rgb(80, 80, 80); fill: none;"></path></marker></defs></svg>